<svg width="80" height="64" viewBox="0 0 80 64" fill="none" xmlns="http://www.w3.org/2000/svg">
<path d="M64.7118 32.8556C73.527 32.8556 79.4674 39.0984 79.4674 48.3483C79.4674 56.672 72.6398 63.6065 63.3923 63.6065C53.2633 63.6065 45.7788 55.2828 45.7788 42.5685C45.7788 13.6699 66.4748 2.11045 79.4674 0.721252V13.4355C70.6578 15.0534 60.7534 24.0688 60.3098 34.0161C60.7534 33.7875 62.5108 32.8556 64.7118 32.8556ZM19.7994 32.8556C28.6033 32.8556 34.5493 39.0984 34.5493 48.3483C34.5493 56.672 27.7218 63.6065 18.4743 63.6065C8.34526 63.6065 0.860792 55.2828 0.860792 42.5685C0.860792 13.6699 21.5568 2.11045 34.5493 0.721252V13.4355C25.7398 15.0534 15.8353 24.0688 15.3918 34.0161C15.8353 33.7875 17.5928 32.8556 19.7994 32.8556Z" fill="#050505"/>
</svg>
