<svg width="79" height="63" viewBox="0 0 79 63" fill="none" xmlns="http://www.w3.org/2000/svg">
<path d="M63.851 32.1344C72.6662 32.1344 78.6066 38.3772 78.6066 47.627C78.6066 55.9507 71.779 62.8853 62.5315 62.8853C52.4025 62.8853 44.918 54.5615 44.918 41.8473C44.918 12.9486 65.614 1.38919 78.6066 0V12.7143C69.797 14.3321 59.8926 23.3476 59.449 33.2949C59.8926 33.0662 61.65 32.1344 63.851 32.1344ZM18.9386 32.1344C27.7425 32.1344 33.6885 38.3772 33.6885 47.627C33.6885 55.9507 26.861 62.8853 17.6135 62.8853C7.48447 62.8853 0 54.5615 0 41.8473C0 12.9486 20.696 1.38919 33.6885 0V12.7143C24.879 14.3321 14.9746 23.3476 14.531 33.2949C14.9746 33.0662 16.732 32.1344 18.9386 32.1344Z" fill="#050505"/>
</svg>
